<?xml version="1.0" encoding="UTF-8" standalone="no"?>
<!DOCTYPE svg PUBLIC "-//W3C//DTD SVG 1.1//EN"
 "http://www.w3.org/Graphics/SVG/1.1/DTD/svg11.dtd">
<!-- Generated by graphviz version 2.43.0 (0)
 -->
<!-- Title: %3 Pages: 1 -->
<svg width="1070pt" height="548pt"
 viewBox="0.00 0.00 1069.50 548.00" xmlns="http://www.w3.org/2000/svg" xmlns:xlink="http://www.w3.org/1999/xlink">
<g id="graph0" class="graph" transform="scale(1 1) rotate(0) translate(4 544)">
<title>%3</title>
<polygon fill="white" stroke="transparent" points="-4,4 -4,-544 1065.5,-544 1065.5,4 -4,4"/>
<!-- [root] aws_api_gateway_deployment.apideploy (expand) -->
<g id="node1" class="node">
<title>[root] aws_api_gateway_deployment.apideploy (expand)</title>
<polygon fill="none" stroke="black" points="813,-396 572,-396 572,-360 813,-360 813,-396"/>
<text text-anchor="middle" x="692.5" y="-374.3" font-family="Times,serif" font-size="14.00">aws_api_gateway_deployment.apideploy</text>
</g>
<!-- [root] aws_api_gateway_integration.lambda (expand) -->
<g id="node2" class="node">
<title>[root] aws_api_gateway_integration.lambda (expand)</title>
<polygon fill="none" stroke="black" points="780.5,-324 558.5,-324 558.5,-288 780.5,-288 780.5,-324"/>
<text text-anchor="middle" x="669.5" y="-302.3" font-family="Times,serif" font-size="14.00">aws_api_gateway_integration.lambda</text>
</g>
<!-- [root] aws_api_gateway_deployment.apideploy (expand)&#45;&gt;[root] aws_api_gateway_integration.lambda (expand) -->
<g id="edge1" class="edge">
<title>[root] aws_api_gateway_deployment.apideploy (expand)&#45;&gt;[root] aws_api_gateway_integration.lambda (expand)</title>
<path fill="none" stroke="black" d="M686.81,-359.7C684.25,-351.9 681.17,-342.51 678.32,-333.83"/>
<polygon fill="black" stroke="black" points="681.57,-332.51 675.12,-324.1 674.92,-334.7 681.57,-332.51"/>
</g>
<!-- [root] aws_api_gateway_integration.lambda_root (expand) -->
<g id="node3" class="node">
<title>[root] aws_api_gateway_integration.lambda_root (expand)</title>
<polygon fill="none" stroke="black" points="1050,-324 799,-324 799,-288 1050,-288 1050,-324"/>
<text text-anchor="middle" x="924.5" y="-302.3" font-family="Times,serif" font-size="14.00">aws_api_gateway_integration.lambda_root</text>
</g>
<!-- [root] aws_api_gateway_deployment.apideploy (expand)&#45;&gt;[root] aws_api_gateway_integration.lambda_root (expand) -->
<g id="edge2" class="edge">
<title>[root] aws_api_gateway_deployment.apideploy (expand)&#45;&gt;[root] aws_api_gateway_integration.lambda_root (expand)</title>
<path fill="none" stroke="black" d="M748.96,-359.97C781.8,-350.06 823.37,-337.51 857.81,-327.12"/>
<polygon fill="black" stroke="black" points="859.23,-330.35 867.79,-324.11 857.21,-323.65 859.23,-330.35"/>
</g>
<!-- [root] aws_api_gateway_method.proxyMethod (expand) -->
<g id="node4" class="node">
<title>[root] aws_api_gateway_method.proxyMethod (expand)</title>
<polygon fill="none" stroke="black" points="819,-252 580,-252 580,-216 819,-216 819,-252"/>
<text text-anchor="middle" x="699.5" y="-230.3" font-family="Times,serif" font-size="14.00">aws_api_gateway_method.proxyMethod</text>
</g>
<!-- [root] aws_api_gateway_integration.lambda (expand)&#45;&gt;[root] aws_api_gateway_method.proxyMethod (expand) -->
<g id="edge3" class="edge">
<title>[root] aws_api_gateway_integration.lambda (expand)&#45;&gt;[root] aws_api_gateway_method.proxyMethod (expand)</title>
<path fill="none" stroke="black" d="M676.92,-287.7C680.29,-279.81 684.37,-270.3 688.12,-261.55"/>
<polygon fill="black" stroke="black" points="691.45,-262.67 692.17,-252.1 685.01,-259.92 691.45,-262.67"/>
</g>
<!-- [root] aws_lambda_function.myLambda (expand) -->
<g id="node10" class="node">
<title>[root] aws_lambda_function.myLambda (expand)</title>
<polygon fill="none" stroke="black" points="523,-252 320,-252 320,-216 523,-216 523,-252"/>
<text text-anchor="middle" x="421.5" y="-230.3" font-family="Times,serif" font-size="14.00">aws_lambda_function.myLambda</text>
</g>
<!-- [root] aws_api_gateway_integration.lambda (expand)&#45;&gt;[root] aws_lambda_function.myLambda (expand) -->
<g id="edge4" class="edge">
<title>[root] aws_api_gateway_integration.lambda (expand)&#45;&gt;[root] aws_lambda_function.myLambda (expand)</title>
<path fill="none" stroke="black" d="M609.15,-287.97C573.75,-277.97 528.84,-265.3 491.84,-254.85"/>
<polygon fill="black" stroke="black" points="492.7,-251.46 482.12,-252.11 490.79,-258.2 492.7,-251.46"/>
</g>
<!-- [root] aws_api_gateway_method.proxy_root (expand) -->
<g id="node5" class="node">
<title>[root] aws_api_gateway_method.proxy_root (expand)</title>
<polygon fill="none" stroke="black" points="1061.5,-252 837.5,-252 837.5,-216 1061.5,-216 1061.5,-252"/>
<text text-anchor="middle" x="949.5" y="-230.3" font-family="Times,serif" font-size="14.00">aws_api_gateway_method.proxy_root</text>
</g>
<!-- [root] aws_api_gateway_integration.lambda_root (expand)&#45;&gt;[root] aws_api_gateway_method.proxy_root (expand) -->
<g id="edge5" class="edge">
<title>[root] aws_api_gateway_integration.lambda_root (expand)&#45;&gt;[root] aws_api_gateway_method.proxy_root (expand)</title>
<path fill="none" stroke="black" d="M930.68,-287.7C933.5,-279.81 936.89,-270.3 940.02,-261.55"/>
<polygon fill="black" stroke="black" points="943.32,-262.7 943.39,-252.1 936.73,-260.34 943.32,-262.7"/>
</g>
<!-- [root] aws_api_gateway_integration.lambda_root (expand)&#45;&gt;[root] aws_lambda_function.myLambda (expand) -->
<g id="edge6" class="edge">
<title>[root] aws_api_gateway_integration.lambda_root (expand)&#45;&gt;[root] aws_lambda_function.myLambda (expand)</title>
<path fill="none" stroke="black" d="M802.1,-287.97C720.11,-276.56 613.01,-261.65 533.31,-250.56"/>
<polygon fill="black" stroke="black" points="533.63,-247.07 523.24,-249.16 532.66,-254 533.63,-247.07"/>
</g>
<!-- [root] aws_api_gateway_resource.proxy (expand) -->
<g id="node6" class="node">
<title>[root] aws_api_gateway_resource.proxy (expand)</title>
<polygon fill="none" stroke="black" points="805.5,-180 605.5,-180 605.5,-144 805.5,-144 805.5,-180"/>
<text text-anchor="middle" x="705.5" y="-158.3" font-family="Times,serif" font-size="14.00">aws_api_gateway_resource.proxy</text>
</g>
<!-- [root] aws_api_gateway_method.proxyMethod (expand)&#45;&gt;[root] aws_api_gateway_resource.proxy (expand) -->
<g id="edge7" class="edge">
<title>[root] aws_api_gateway_method.proxyMethod (expand)&#45;&gt;[root] aws_api_gateway_resource.proxy (expand)</title>
<path fill="none" stroke="black" d="M700.98,-215.7C701.64,-207.98 702.44,-198.71 703.18,-190.11"/>
<polygon fill="black" stroke="black" points="706.67,-190.37 704.03,-180.1 699.69,-189.77 706.67,-190.37"/>
</g>
<!-- [root] aws_api_gateway_rest_api.apiLambda (expand) -->
<g id="node7" class="node">
<title>[root] aws_api_gateway_rest_api.apiLambda (expand)</title>
<polygon fill="none" stroke="black" points="831,-108 604,-108 604,-72 831,-72 831,-108"/>
<text text-anchor="middle" x="717.5" y="-86.3" font-family="Times,serif" font-size="14.00">aws_api_gateway_rest_api.apiLambda</text>
</g>
<!-- [root] aws_api_gateway_method.proxy_root (expand)&#45;&gt;[root] aws_api_gateway_rest_api.apiLambda (expand) -->
<g id="edge8" class="edge">
<title>[root] aws_api_gateway_method.proxy_root (expand)&#45;&gt;[root] aws_api_gateway_rest_api.apiLambda (expand)</title>
<path fill="none" stroke="black" d="M925.01,-215.97C898.26,-197.58 853.95,-167.73 814.5,-144 796.74,-133.32 776.7,-122.22 759.47,-112.95"/>
<polygon fill="black" stroke="black" points="760.68,-109.63 750.21,-108.01 757.38,-115.81 760.68,-109.63"/>
</g>
<!-- [root] aws_api_gateway_resource.proxy (expand)&#45;&gt;[root] aws_api_gateway_rest_api.apiLambda (expand) -->
<g id="edge9" class="edge">
<title>[root] aws_api_gateway_resource.proxy (expand)&#45;&gt;[root] aws_api_gateway_rest_api.apiLambda (expand)</title>
<path fill="none" stroke="black" d="M708.47,-143.7C709.79,-135.98 711.38,-126.71 712.85,-118.11"/>
<polygon fill="black" stroke="black" points="716.33,-118.55 714.57,-108.1 709.43,-117.37 716.33,-118.55"/>
</g>
<!-- [root] provider[&quot;registry.terraform.io/hashicorp/aws&quot;] -->
<g id="node13" class="node">
<title>[root] provider[&quot;registry.terraform.io/hashicorp/aws&quot;]</title>
<polygon fill="none" stroke="black" points="507.5,-36 254.96,-18 507.5,0 760.04,-18 507.5,-36"/>
<text text-anchor="middle" x="507.5" y="-14.3" font-family="Times,serif" font-size="14.00">provider[&quot;registry.terraform.io/hashicorp/aws&quot;]</text>
</g>
<!-- [root] aws_api_gateway_rest_api.apiLambda (expand)&#45;&gt;[root] provider[&quot;registry.terraform.io/hashicorp/aws&quot;] -->
<g id="edge10" class="edge">
<title>[root] aws_api_gateway_rest_api.apiLambda (expand)&#45;&gt;[root] provider[&quot;registry.terraform.io/hashicorp/aws&quot;]</title>
<path fill="none" stroke="black" d="M666.4,-71.97C633.94,-61.15 592.05,-47.18 559.44,-36.31"/>
<polygon fill="black" stroke="black" points="560.23,-32.89 549.63,-33.04 558.01,-39.53 560.23,-32.89"/>
</g>
<!-- [root] aws_iam_role.lambda_role (expand) -->
<g id="node8" class="node">
<title>[root] aws_iam_role.lambda_role (expand)</title>
<polygon fill="none" stroke="black" points="165,-180 0,-180 0,-144 165,-144 165,-180"/>
<text text-anchor="middle" x="82.5" y="-158.3" font-family="Times,serif" font-size="14.00">aws_iam_role.lambda_role</text>
</g>
<!-- [root] aws_iam_role.lambda_role (expand)&#45;&gt;[root] provider[&quot;registry.terraform.io/hashicorp/aws&quot;] -->
<g id="edge11" class="edge">
<title>[root] aws_iam_role.lambda_role (expand)&#45;&gt;[root] provider[&quot;registry.terraform.io/hashicorp/aws&quot;]</title>
<path fill="none" stroke="black" d="M93.5,-143.67C107.67,-122.94 134.35,-88.91 166.5,-72 204.33,-52.1 305.94,-37.92 388.47,-29.26"/>
<polygon fill="black" stroke="black" points="388.85,-32.74 398.44,-28.23 388.13,-25.78 388.85,-32.74"/>
</g>
<!-- [root] aws_iam_role_policy_attachment.lambda (expand) -->
<g id="node9" class="node">
<title>[root] aws_iam_role_policy_attachment.lambda (expand)</title>
<polygon fill="none" stroke="black" points="334,-396 89,-396 89,-360 334,-360 334,-396"/>
<text text-anchor="middle" x="211.5" y="-374.3" font-family="Times,serif" font-size="14.00">aws_iam_role_policy_attachment.lambda</text>
</g>
<!-- [root] aws_iam_role_policy_attachment.lambda (expand)&#45;&gt;[root] aws_iam_role.lambda_role (expand) -->
<g id="edge12" class="edge">
<title>[root] aws_iam_role_policy_attachment.lambda (expand)&#45;&gt;[root] aws_iam_role.lambda_role (expand)</title>
<path fill="none" stroke="black" d="M201.16,-359.85C178.61,-322.44 124.89,-233.32 98.16,-188.98"/>
<polygon fill="black" stroke="black" points="101.05,-186.99 92.89,-180.23 95.05,-190.6 101.05,-186.99"/>
</g>
<!-- [root] aws_lambda_function.myLambda (expand)&#45;&gt;[root] aws_iam_role.lambda_role (expand) -->
<g id="edge13" class="edge">
<title>[root] aws_lambda_function.myLambda (expand)&#45;&gt;[root] aws_iam_role.lambda_role (expand)</title>
<path fill="none" stroke="black" d="M339,-215.97C289.49,-205.74 226.38,-192.71 175.15,-182.13"/>
<polygon fill="black" stroke="black" points="175.57,-178.64 165.07,-180.05 174.16,-185.5 175.57,-178.64"/>
</g>
<!-- [root] aws_s3_bucket.mybucket (expand) -->
<g id="node12" class="node">
<title>[root] aws_s3_bucket.mybucket (expand)</title>
<polygon fill="none" stroke="black" points="586,-108 429,-108 429,-72 586,-72 586,-108"/>
<text text-anchor="middle" x="507.5" y="-86.3" font-family="Times,serif" font-size="14.00">aws_s3_bucket.mybucket</text>
</g>
<!-- [root] aws_lambda_function.myLambda (expand)&#45;&gt;[root] aws_s3_bucket.mybucket (expand) -->
<g id="edge14" class="edge">
<title>[root] aws_lambda_function.myLambda (expand)&#45;&gt;[root] aws_s3_bucket.mybucket (expand)</title>
<path fill="none" stroke="black" d="M456.19,-215.8C470.32,-207.03 485.42,-195.01 494.5,-180 505.71,-161.46 508.59,-136.87 508.87,-118.23"/>
<polygon fill="black" stroke="black" points="512.37,-118.01 508.78,-108.04 505.37,-118.07 512.37,-118.01"/>
</g>
<!-- [root] local.file_base64sha256 (expand) -->
<g id="node14" class="node">
<title>[root] local.file_base64sha256 (expand)</title>
<ellipse fill="none" stroke="black" cx="334.5" cy="-162" rx="151.37" ry="18"/>
<text text-anchor="middle" x="334.5" y="-158.3" font-family="Times,serif" font-size="14.00">[root] local.file_base64sha256 (expand)</text>
</g>
<!-- [root] aws_lambda_function.myLambda (expand)&#45;&gt;[root] local.file_base64sha256 (expand) -->
<g id="edge15" class="edge">
<title>[root] aws_lambda_function.myLambda (expand)&#45;&gt;[root] local.file_base64sha256 (expand)</title>
<path fill="none" stroke="black" d="M399.99,-215.7C388.96,-206.81 375.35,-195.87 363.41,-186.26"/>
<polygon fill="black" stroke="black" points="365.44,-183.4 355.46,-179.86 361.06,-188.86 365.44,-183.4"/>
</g>
<!-- [root] aws_lambda_permission.apigw (expand) -->
<g id="node11" class="node">
<title>[root] aws_lambda_permission.apigw (expand)</title>
<polygon fill="none" stroke="black" points="515.5,-324 327.5,-324 327.5,-288 515.5,-288 515.5,-324"/>
<text text-anchor="middle" x="421.5" y="-302.3" font-family="Times,serif" font-size="14.00">aws_lambda_permission.apigw</text>
</g>
<!-- [root] aws_lambda_permission.apigw (expand)&#45;&gt;[root] aws_api_gateway_rest_api.apiLambda (expand) -->
<g id="edge16" class="edge">
<title>[root] aws_lambda_permission.apigw (expand)&#45;&gt;[root] aws_api_gateway_rest_api.apiLambda (expand)</title>
<path fill="none" stroke="black" d="M472.83,-287.94C493.06,-279.43 515.48,-267.56 532.5,-252 573.68,-214.35 554.71,-180.97 596.5,-144 611.85,-130.41 631.24,-119.85 649.97,-111.86"/>
<polygon fill="black" stroke="black" points="651.44,-115.04 659.38,-108.03 648.8,-108.56 651.44,-115.04"/>
</g>
<!-- [root] aws_lambda_permission.apigw (expand)&#45;&gt;[root] aws_lambda_function.myLambda (expand) -->
<g id="edge17" class="edge">
<title>[root] aws_lambda_permission.apigw (expand)&#45;&gt;[root] aws_lambda_function.myLambda (expand)</title>
<path fill="none" stroke="black" d="M421.5,-287.7C421.5,-279.98 421.5,-270.71 421.5,-262.11"/>
<polygon fill="black" stroke="black" points="425,-262.1 421.5,-252.1 418,-262.1 425,-262.1"/>
</g>
<!-- [root] aws_s3_bucket.mybucket (expand)&#45;&gt;[root] provider[&quot;registry.terraform.io/hashicorp/aws&quot;] -->
<g id="edge18" class="edge">
<title>[root] aws_s3_bucket.mybucket (expand)&#45;&gt;[root] provider[&quot;registry.terraform.io/hashicorp/aws&quot;]</title>
<path fill="none" stroke="black" d="M507.5,-71.7C507.5,-63.98 507.5,-54.71 507.5,-46.11"/>
<polygon fill="black" stroke="black" points="511,-46.1 507.5,-36.1 504,-46.1 511,-46.1"/>
</g>
<!-- [root] local.file_path (expand) -->
<g id="node15" class="node">
<title>[root] local.file_path (expand)</title>
<ellipse fill="none" stroke="black" cx="293.5" cy="-90" rx="117.78" ry="18"/>
<text text-anchor="middle" x="293.5" y="-86.3" font-family="Times,serif" font-size="14.00">[root] local.file_path (expand)</text>
</g>
<!-- [root] local.file_base64sha256 (expand)&#45;&gt;[root] local.file_path (expand) -->
<g id="edge19" class="edge">
<title>[root] local.file_base64sha256 (expand)&#45;&gt;[root] local.file_path (expand)</title>
<path fill="none" stroke="black" d="M324.37,-143.7C319.65,-135.64 313.94,-125.89 308.72,-116.98"/>
<polygon fill="black" stroke="black" points="311.59,-114.96 303.52,-108.1 305.55,-118.5 311.59,-114.96"/>
</g>
<!-- [root] output.base_url (expand) -->
<g id="node16" class="node">
<title>[root] output.base_url (expand)</title>
<ellipse fill="none" stroke="black" cx="764.5" cy="-450" rx="121.58" ry="18"/>
<text text-anchor="middle" x="764.5" y="-446.3" font-family="Times,serif" font-size="14.00">[root] output.base_url (expand)</text>
</g>
<!-- [root] output.base_url (expand)&#45;&gt;[root] aws_api_gateway_deployment.apideploy (expand) -->
<g id="edge20" class="edge">
<title>[root] output.base_url (expand)&#45;&gt;[root] aws_api_gateway_deployment.apideploy (expand)</title>
<path fill="none" stroke="black" d="M747.07,-432.05C738.12,-423.35 727.05,-412.59 717.23,-403.04"/>
<polygon fill="black" stroke="black" points="719.63,-400.49 710.02,-396.03 714.75,-405.51 719.63,-400.49"/>
</g>
<!-- [root] provider[&quot;registry.terraform.io/hashicorp/aws&quot;] (close) -->
<g id="node17" class="node">
<title>[root] provider[&quot;registry.terraform.io/hashicorp/aws&quot;] (close)</title>
<ellipse fill="none" stroke="black" cx="397.5" cy="-450" rx="227.46" ry="18"/>
<text text-anchor="middle" x="397.5" y="-446.3" font-family="Times,serif" font-size="14.00">[root] provider[&quot;registry.terraform.io/hashicorp/aws&quot;] (close)</text>
</g>
<!-- [root] provider[&quot;registry.terraform.io/hashicorp/aws&quot;] (close)&#45;&gt;[root] aws_api_gateway_deployment.apideploy (expand) -->
<g id="edge21" class="edge">
<title>[root] provider[&quot;registry.terraform.io/hashicorp/aws&quot;] (close)&#45;&gt;[root] aws_api_gateway_deployment.apideploy (expand)</title>
<path fill="none" stroke="black" d="M465.92,-432.76C509.21,-422.49 565.4,-409.16 611,-398.34"/>
<polygon fill="black" stroke="black" points="611.93,-401.72 620.85,-396 610.32,-394.9 611.93,-401.72"/>
</g>
<!-- [root] provider[&quot;registry.terraform.io/hashicorp/aws&quot;] (close)&#45;&gt;[root] aws_iam_role_policy_attachment.lambda (expand) -->
<g id="edge22" class="edge">
<title>[root] provider[&quot;registry.terraform.io/hashicorp/aws&quot;] (close)&#45;&gt;[root] aws_iam_role_policy_attachment.lambda (expand)</title>
<path fill="none" stroke="black" d="M352.95,-432.23C326.99,-422.46 294.05,-410.07 266.48,-399.69"/>
<polygon fill="black" stroke="black" points="267.57,-396.36 256.98,-396.12 265.11,-402.91 267.57,-396.36"/>
</g>
<!-- [root] provider[&quot;registry.terraform.io/hashicorp/aws&quot;] (close)&#45;&gt;[root] aws_lambda_permission.apigw (expand) -->
<g id="edge23" class="edge">
<title>[root] provider[&quot;registry.terraform.io/hashicorp/aws&quot;] (close)&#45;&gt;[root] aws_lambda_permission.apigw (expand)</title>
<path fill="none" stroke="black" d="M400.39,-431.87C404.49,-407.67 412,-363.21 416.87,-334.39"/>
<polygon fill="black" stroke="black" points="420.38,-334.63 418.59,-324.19 413.48,-333.47 420.38,-334.63"/>
</g>
<!-- [root] root -->
<g id="node18" class="node">
<title>[root] root</title>
<ellipse fill="none" stroke="black" cx="580.5" cy="-522" rx="47.39" ry="18"/>
<text text-anchor="middle" x="580.5" y="-518.3" font-family="Times,serif" font-size="14.00">[root] root</text>
</g>
<!-- [root] root&#45;&gt;[root] output.base_url (expand) -->
<g id="edge24" class="edge">
<title>[root] root&#45;&gt;[root] output.base_url (expand)</title>
<path fill="none" stroke="black" d="M612.97,-508.65C640.65,-498.12 680.92,-482.8 712.99,-470.6"/>
<polygon fill="black" stroke="black" points="714.55,-473.75 722.65,-466.92 712.06,-467.2 714.55,-473.75"/>
</g>
<!-- [root] root&#45;&gt;[root] provider[&quot;registry.terraform.io/hashicorp/aws&quot;] (close) -->
<g id="edge25" class="edge">
<title>[root] root&#45;&gt;[root] provider[&quot;registry.terraform.io/hashicorp/aws&quot;] (close)</title>
<path fill="none" stroke="black" d="M548.2,-508.65C521.24,-498.33 482.25,-483.42 450.68,-471.34"/>
<polygon fill="black" stroke="black" points="451.74,-468 441.15,-467.7 449.24,-474.54 451.74,-468"/>
</g>
</g>
</svg>
